<svg id="Layer_1" data-name="Layer 1" xmlns="http://www.w3.org/2000/svg" viewBox="0 0 770.56 372.05"><defs><style>.cls-1{fill:none;stroke:#231f20;stroke-miterlimit:10;}.cls-2{fill:#d76a27;}</style></defs><title>LogoDKR</title><path d="M3,261.92H51.48c26.82,0,37.21,17,37.21,34.5s-10.39,34.5-37.21,34.5H26.62v38.57H3V261.92Zm23.65,50.62H45c11,0,20.79-2.41,20.79-16.12S56,280.3,45,280.3H26.62v32.24Z"/><path d="M103.45,261.92h23.65V349.6h52.43v19.89H103.45V261.92Z"/><path d="M222.17,261.92h24.25l40.22,107.56H262.09l-8.14-24H213.73l-8.44,24h-24Zm-2.26,66h27.87l-13.56-39.47h-0.3Z"/><path d="M296,261.92h23.5l44.89,72.16h0.3V261.92h22.15V369.49H363.18l-44.74-72h-0.3v72H296V261.92Z"/><path d="M407.63,261.92h23.5L476,334.09h0.3V261.92h22.15V369.49H474.82l-44.74-72h-0.3v72H407.63V261.92Z"/><path d="M519.26,261.92h23.65V369.49H519.26V261.92Z"/><path d="M563.71,261.92h23.5l44.89,72.16h0.3V261.92h22.15V369.49H630.9l-44.74-72h-0.3v72H563.71V261.92Z"/><path d="M753.08,357.28C744.79,368,733.95,372,723.55,372c-33.29,0-52.88-24.86-52.88-55.89,0-31.94,19.58-56.79,52.88-56.79,22,0,42.79,13.56,45.35,38H746.3c-2.71-11.9-11.6-18.08-22.75-18.08-21.24,0-29.23,18.08-29.23,36.91,0,17.93,8,36,29.23,36,15.37,0,24.25-8.29,25.61-23.2h-23.8V311.34h45.19v58.15H755.49Z"/><path class="cls-1" d="M363.52,120.82"/><polygon class="cls-2" points="19.45 0.08 80.79 0 159.43 75.59 159.43 17.63 176.68 0 242.41 0 256.6 13.55 256.4 233.03 240.24 247.55 175.59 247.55 95.61 169.53 95.86 231.98 79.7 247.55 17.23 247.55 0 230.97 0 17.31 19.45 0.08"/><polygon class="cls-2" points="269.05 0.08 335.13 0.08 350.31 17.21 350.31 47.12 381.72 77.03 413.14 48.14 413.14 18.25 430.47 1.74 494.38 1.74 510.62 19.29 510.62 111.05 430.47 187.38 430.47 228.62 414.22 247.17 349.21 247.17 332.97 229.65 332.97 184.29 256.9 110.59 256.76 13.55 269.05 0.08"/><polygon class="cls-2" points="510.62 47.45 560.2 1.07 719.73 1.07 768.24 47.89 768.24 92.66 749.91 108.28 672.3 108.28 672.3 92.66 607.65 92.66 607.65 153.03 671.22 153.03 671.22 140.54 750.99 140.54 768.6 158.23 768.12 197.78 716.49 247.75 560.2 247.75 510.62 200.9 510.62 47.45"/><path class="cls-2" d="M757.26,11c1.59,0,3-.15,3-2,0-1.56-1.53-1.75-2.8-1.75h-2.56V11h2.37Zm-2.37,7.32h-2.12V5.42h4.89c3.12,0,4.71,1.09,4.71,3.71,0,2.33-1.43,3.31-3.36,3.52l3.62,5.66h-2.41l-3.33-5.51h-2v5.51ZM757.19,2c-5,0-9,4-9,9.63,0,5.3,3.42,9.63,9,9.63,5,0,8.91-3.93,8.91-9.63S762.18,2,757.19,2m0,21.28c-6.7,0-11.47-5-11.47-11.65a11.44,11.44,0,1,1,22.88,0A11.3,11.3,0,0,1,757.19,23.3"/></svg>