<?xml version="1.0" encoding="utf-8"?>
<!-- Generator: Adobe Illustrator 19.2.1, SVG Export Plug-In . SVG Version: 6.00 Build 0)  -->
<svg version="1.1" xmlns="http://www.w3.org/2000/svg" xmlns:xlink="http://www.w3.org/1999/xlink" x="0px" y="0px"
	 viewBox="0 0 800 393.4" style="enable-background:new 0 0 800 393.4;" xml:space="preserve">
<style type="text/css">
	.st0{display:none;}
	.st1{display:inline;}
	.st2{fill:none;stroke:#000000;stroke-width:8;stroke-miterlimit:10;}
	.st3{fill:none;stroke:#000000;stroke-width:4;stroke-miterlimit:10;}
	.st4{fill:none;stroke:#000000;stroke-width:0.5;stroke-miterlimit:10;}
	.st5{fill:#58595B;}
	.st6{fill:none;stroke:#58595B;stroke-miterlimit:10;}
	.st7{fill:none;stroke:#000000;stroke-width:5;stroke-miterlimit:10;}
	.st8{fill:none;stroke:#000000;stroke-miterlimit:10;}
	.st9{fill:none;}
	.st10{font-family:'HelveticaNeueLTStd-Bd';}
	.st11{font-size:150.6569px;}
	.st12{fill:#FFFFFF;}
	.st13{fill:#F39D1E;}
</style>
<g id="Skyline" class="st0">
	<g class="st1">
		<rect x="-1901.8" y="-448.2" width="14.8" height="278.1"/>
		<line class="st2" x1="-1639.5" y1="-263.2" x2="-2149.4" y2="-263.2"/>
		<g>
			<path class="st3" d="M-1887-448.2c0,97.6,110.7,176.6,247.5,176.6"/>
			<g>
				<line class="st4" x1="-1877.8" y1="-400.2" x2="-1877.8" y2="-263.2"/>
				<line class="st4" x1="-1866.4" y1="-377.1" x2="-1866.4" y2="-263.2"/>
				<line class="st4" x1="-1855.1" y1="-361.3" x2="-1855.1" y2="-263.2"/>
				<line class="st4" x1="-1843.7" y1="-348.3" x2="-1843.7" y2="-263.2"/>
				<line class="st4" x1="-1832.4" y1="-336.9" x2="-1832.4" y2="-263.2"/>
				<line class="st4" x1="-1821" y1="-328.1" x2="-1821" y2="-263.2"/>
				<line class="st4" x1="-1809.7" y1="-320.3" x2="-1809.7" y2="-263.2"/>
				<line class="st4" x1="-1798.3" y1="-313" x2="-1798.3" y2="-263.2"/>
				<line class="st4" x1="-1787" y1="-306" x2="-1787" y2="-263.2"/>
				<line class="st4" x1="-1775.6" y1="-300.6" x2="-1775.6" y2="-263.2"/>
				<line class="st4" x1="-1764.3" y1="-295.6" x2="-1764.3" y2="-263.2"/>
				<line class="st4" x1="-1752.9" y1="-291.1" x2="-1752.9" y2="-263.2"/>
				<line class="st4" x1="-1741.6" y1="-287" x2="-1741.6" y2="-263.2"/>
				<line class="st4" x1="-1730.2" y1="-283.8" x2="-1730.2" y2="-263.2"/>
				<line class="st4" x1="-1718.9" y1="-280.3" x2="-1718.9" y2="-263.2"/>
				<line class="st4" x1="-1707.5" y1="-278.5" x2="-1707.5" y2="-263.2"/>
				<line class="st4" x1="-1696.2" y1="-276.2" x2="-1696.2" y2="-263.2"/>
				<line class="st4" x1="-1684.9" y1="-274.6" x2="-1684.9" y2="-263.2"/>
				<line class="st4" x1="-1673.5" y1="-273.2" x2="-1673.5" y2="-263.2"/>
				<line class="st4" x1="-1662.2" y1="-272.3" x2="-1662.2" y2="-263.2"/>
				<line class="st4" x1="-1650.8" y1="-271.7" x2="-1650.8" y2="-263.2"/>
			</g>
		</g>
		<g>
			<path class="st3" d="M-1902.1-448.2c0,97.6-110.7,176.6-247.5,176.6"/>
			<g>
				<line class="st4" x1="-1911.3" y1="-400.2" x2="-1911.3" y2="-263.2"/>
				<line class="st4" x1="-1922.7" y1="-377.1" x2="-1922.7" y2="-263.2"/>
				<line class="st4" x1="-1934" y1="-361.3" x2="-1934" y2="-263.2"/>
				<line class="st4" x1="-1945.4" y1="-348.3" x2="-1945.4" y2="-263.2"/>
				<line class="st4" x1="-1956.7" y1="-336.9" x2="-1956.7" y2="-263.2"/>
				<line class="st4" x1="-1968.1" y1="-328.1" x2="-1968.1" y2="-263.2"/>
				<line class="st4" x1="-1979.4" y1="-320.3" x2="-1979.4" y2="-263.2"/>
				<line class="st4" x1="-1990.8" y1="-313" x2="-1990.8" y2="-263.2"/>
				<line class="st4" x1="-2002.1" y1="-306" x2="-2002.1" y2="-263.2"/>
				<line class="st4" x1="-2013.4" y1="-300.6" x2="-2013.4" y2="-263.2"/>
				<line class="st4" x1="-2024.8" y1="-295.6" x2="-2024.8" y2="-263.2"/>
				<line class="st4" x1="-2036.1" y1="-291.1" x2="-2036.1" y2="-263.2"/>
				<line class="st4" x1="-2047.5" y1="-287" x2="-2047.5" y2="-263.2"/>
				<line class="st4" x1="-2058.8" y1="-283.8" x2="-2058.8" y2="-263.2"/>
				<line class="st4" x1="-2070.2" y1="-280.3" x2="-2070.2" y2="-263.2"/>
				<line class="st4" x1="-2081.5" y1="-278.5" x2="-2081.5" y2="-263.2"/>
				<line class="st4" x1="-2092.9" y1="-276.2" x2="-2092.9" y2="-263.2"/>
				<line class="st4" x1="-2104.2" y1="-274.6" x2="-2104.2" y2="-263.2"/>
				<line class="st4" x1="-2115.6" y1="-273.2" x2="-2115.6" y2="-263.2"/>
				<line class="st4" x1="-2126.9" y1="-272.3" x2="-2126.9" y2="-263.2"/>
				<line class="st4" x1="-2138.3" y1="-271.7" x2="-2138.3" y2="-263.2"/>
			</g>
		</g>
		<rect x="-1392.3" y="-448.2" width="14.8" height="278.1"/>
		<line class="st2" x1="-1130" y1="-263.2" x2="-1639.9" y2="-263.2"/>
		<g>
			<path class="st3" d="M-1377.5-448.2c0,97.6,110.7,176.6,247.5,176.6"/>
			<g>
				<line class="st4" x1="-1368.3" y1="-400.2" x2="-1368.3" y2="-263.2"/>
				<line class="st4" x1="-1357" y1="-377.1" x2="-1357" y2="-263.2"/>
				<line class="st4" x1="-1345.6" y1="-361.3" x2="-1345.6" y2="-263.2"/>
				<line class="st4" x1="-1334.3" y1="-348.3" x2="-1334.3" y2="-263.2"/>
				<line class="st4" x1="-1322.9" y1="-336.9" x2="-1322.9" y2="-263.2"/>
				<line class="st4" x1="-1311.6" y1="-328.1" x2="-1311.6" y2="-263.2"/>
				<line class="st4" x1="-1300.2" y1="-320.3" x2="-1300.2" y2="-263.2"/>
				<line class="st4" x1="-1288.9" y1="-313" x2="-1288.9" y2="-263.2"/>
				<line class="st4" x1="-1277.5" y1="-306" x2="-1277.5" y2="-263.2"/>
				<line class="st4" x1="-1266.2" y1="-300.6" x2="-1266.2" y2="-263.2"/>
				<line class="st4" x1="-1254.8" y1="-295.6" x2="-1254.8" y2="-263.2"/>
				<line class="st4" x1="-1243.5" y1="-291.1" x2="-1243.5" y2="-263.2"/>
				<line class="st4" x1="-1232.1" y1="-287" x2="-1232.1" y2="-263.2"/>
				<line class="st4" x1="-1220.8" y1="-283.8" x2="-1220.8" y2="-263.2"/>
				<line class="st4" x1="-1209.4" y1="-280.3" x2="-1209.4" y2="-263.2"/>
				<line class="st4" x1="-1198.1" y1="-278.5" x2="-1198.1" y2="-263.2"/>
				<line class="st4" x1="-1186.7" y1="-276.2" x2="-1186.7" y2="-263.2"/>
				<line class="st4" x1="-1175.4" y1="-274.6" x2="-1175.4" y2="-263.2"/>
				<line class="st4" x1="-1164" y1="-273.2" x2="-1164" y2="-263.2"/>
				<line class="st4" x1="-1152.7" y1="-272.3" x2="-1152.7" y2="-263.2"/>
				<line class="st4" x1="-1141.3" y1="-271.7" x2="-1141.3" y2="-263.2"/>
			</g>
		</g>
		<g>
			<path class="st3" d="M-1392.6-448.2c0,97.6-110.7,176.6-247.5,176.6"/>
			<g>
				<line class="st4" x1="-1401.8" y1="-400.2" x2="-1401.8" y2="-263.2"/>
				<line class="st4" x1="-1413.2" y1="-377.1" x2="-1413.2" y2="-263.2"/>
				<line class="st4" x1="-1424.5" y1="-361.3" x2="-1424.5" y2="-263.2"/>
				<line class="st4" x1="-1435.9" y1="-348.3" x2="-1435.9" y2="-263.2"/>
				<line class="st4" x1="-1447.2" y1="-336.9" x2="-1447.2" y2="-263.2"/>
				<line class="st4" x1="-1458.6" y1="-328.1" x2="-1458.6" y2="-263.2"/>
				<line class="st4" x1="-1469.9" y1="-320.3" x2="-1469.9" y2="-263.2"/>
				<line class="st4" x1="-1481.3" y1="-313" x2="-1481.3" y2="-263.2"/>
				<line class="st4" x1="-1492.6" y1="-306" x2="-1492.6" y2="-263.2"/>
				<line class="st4" x1="-1504" y1="-300.6" x2="-1504" y2="-263.2"/>
				<line class="st4" x1="-1515.3" y1="-295.6" x2="-1515.3" y2="-263.2"/>
				<line class="st4" x1="-1526.7" y1="-291.1" x2="-1526.7" y2="-263.2"/>
				<line class="st4" x1="-1538" y1="-287" x2="-1538" y2="-263.2"/>
				<line class="st4" x1="-1549.4" y1="-283.8" x2="-1549.4" y2="-263.2"/>
				<line class="st4" x1="-1560.7" y1="-280.3" x2="-1560.7" y2="-263.2"/>
				<line class="st4" x1="-1572.1" y1="-278.5" x2="-1572.1" y2="-263.2"/>
				<line class="st4" x1="-1583.4" y1="-276.2" x2="-1583.4" y2="-263.2"/>
				<line class="st4" x1="-1594.8" y1="-274.6" x2="-1594.8" y2="-263.2"/>
				<line class="st4" x1="-1606.1" y1="-273.2" x2="-1606.1" y2="-263.2"/>
				<line class="st4" x1="-1617.5" y1="-272.3" x2="-1617.5" y2="-263.2"/>
				<line class="st4" x1="-1628.8" y1="-271.7" x2="-1628.8" y2="-263.2"/>
			</g>
		</g>
		<g>
			<path class="st5" d="M-1517-462.1l-15.9-91.9L-1517-462.1v27.4h4.8v130.2h4.8v26.4h8.7v36.8h12.6v-59.8v-9.4h13.8v-6.3h26.6v6.6
				h24.4v19.1h39.4v20.8h12.5v-33h38.5v-14.1h5v-12.5h23.1v12.2h5v18.1h3.1v75.7h11.9v-50.6h20v-68.8h11.9v-20.6h74.1v22.5h13.8
				v54.4h7.2v37.8h22.5V-300l20.6-0.1V-320l60.5,0v20h9.9v50.8h34.8v-77.5h7.4v-4.6h6.9v-3.7h20.4v85.9h16.9v-26.6h20.8v21.7h15.6
				v-34.5h18.8v-22.1h33.1v51.1h19.3v-25.3l19.5-14.3l20.1,14.3v25.3v-25.3l19.5-14.3l20.1,14.3v25.3h9.1v-19.8l19.5-19.8l20.1,19.8
				v19.8h12.4v-19.8l19.5-19.8l20.1,19.8v19.8h22.6v-40.7h27.5v-17.2h32.7v57.9h22.1v-41.6l31.4,0h0l0,13.5l46.8,0V58.7h-1693.4
				v-415h54.2h-0.9v68.8h38.7v89h33.3v-22h26.3V-281h13.1v-39.2h9.8v-161.7h2.4v-37.6h6.3v-26.9h4.3v-9.8h9l4.1-41.6v-14.8l4.1-67.6
				l5.7,67.3v14.8l3.3,41.9h9.1v9.8h3.9v26.9h6.5v37.6h3.3v161.7h9v38.9h13.9v60.7h19.6v22h10.8h20.6v-76.9h28.1v-91.3h9.4v-22.5
				h15.6v-19.1h17.5v18.1h11.9v24.7h8.8c0,0,0,146,0,146.6c0,0.6,42.2,0,42.2,0v-10.9h30.6v-75h6.6v-135.1h53.5v131.3h38.1v67.3
				h39.4v-36.8h8.7v-26.4h4.8v-130.2h4.8v-27.4l15.9-91.9"/>
			<path class="st6" d="M-1548.8-462.1"/>
		</g>
	</g>
</g>
<g id="Text">
	<g>
		<path class="st7" d="M-5199.2,242.4"/>
		<g>
			<path class="st8" d="M-5199,236.4"/>
		</g>
	</g>
	<rect x="9.5" y="273.7" class="st9" width="804.7" height="117.7"/>
	<text transform="matrix(1 0 0 1 9.4888 381.2951)" class="st10 st11">PLANNING</text>
	<path class="st8" d="M380.4,132.6"/>
	<rect x="855.6" y="273.7" class="st9" width="804.7" height="117.7"/>
	<text transform="matrix(1 0 0 1 855.5734 381.2951)" class="st12 st10 st11">PLANNING</text>
	<path class="st8" d="M1226.5,132.6"/>
</g>
<g id="NYC">
	<g>
		<g>
			<g>
				<g>
					<polygon class="st13" points="36.4,11.9 97.7,11.8 176.4,87.4 176.4,29.4 193.6,11.8 259.3,11.8 273.5,25.4 273.3,244.8 
						257.2,259.4 192.5,259.4 112.5,181.3 112.8,243.8 96.6,259.4 34.1,259.4 16.9,242.8 16.9,29.1 					"/>
					<polygon class="st13" points="286,11.9 352.1,11.9 367.2,29 367.2,58.9 398.6,88.8 430.1,59.9 430.1,30.1 447.4,13.5 
						511.3,13.5 527.5,31.1 527.5,122.9 447.4,199.2 447.4,240.4 431.1,259 366.1,259 349.9,241.5 349.9,196.1 273.8,122.4 
						273.7,25.4 					"/>
					<polygon class="st13" points="527.5,59.3 577.1,12.9 736.6,12.9 785.2,59.7 785.2,104.5 766.8,120.1 689.2,120.1 689.2,104.5 
						624.6,104.5 624.6,164.8 688.1,164.8 688.1,152.3 767.9,152.3 785.5,170 785,209.6 733.4,259.6 577.1,259.6 527.5,212.7 					
						"/>
				</g>
			</g>
		</g>
		<path class="st13" d="M774.2,22.8c1.6,0,3-0.2,3-2c0-1.6-1.5-1.7-2.8-1.7h-2.6v3.8H774.2z M771.8,30.1h-2.1V17.2h4.9
			c3.1,0,4.7,1.1,4.7,3.7c0,2.3-1.4,3.3-3.4,3.5l3.6,5.7h-2.4l-3.3-5.5h-2V30.1z M774.1,13.8c-5,0-9,4-9,9.6c0,5.3,3.4,9.6,9,9.6
			c5,0,8.9-3.9,8.9-9.6C783,17.8,779.1,13.8,774.1,13.8 M774.1,35.1c-6.7,0-11.5-5-11.5-11.7c0-7,5.3-11.7,11.5-11.7
			c6.1,0,11.4,4.6,11.4,11.7C785.5,30.5,780.2,35.1,774.1,35.1"/>
	</g>
	<g>
		<g>
			<g>
				<g>
					<polygon class="st12" points="882.4,11.9 943.8,11.8 1022.4,87.4 1022.4,29.4 1039.7,11.8 1105.4,11.8 1119.6,25.4 
						1119.4,244.8 1103.2,259.4 1038.6,259.4 958.6,181.3 958.9,243.8 942.7,259.4 880.2,259.4 863,242.8 863,29.1 					"/>
					<polygon class="st12" points="1132,11.9 1198.1,11.9 1213.3,29 1213.3,58.9 1244.7,88.8 1276.1,59.9 1276.1,30.1 1293.5,13.5 
						1357.4,13.5 1373.6,31.1 1373.6,122.9 1293.5,199.2 1293.5,240.4 1277.2,259 1212.2,259 1196,241.5 1196,196.1 1119.9,122.4 
						1119.8,25.4 					"/>
					<polygon class="st12" points="1373.6,59.3 1423.2,12.9 1582.7,12.9 1631.2,59.7 1631.2,104.5 1612.9,120.1 1535.3,120.1 
						1535.3,104.5 1470.6,104.5 1470.6,164.8 1534.2,164.8 1534.2,152.3 1614,152.3 1631.6,170 1631.1,209.6 1579.5,259.6 
						1423.2,259.6 1373.6,212.7 					"/>
				</g>
			</g>
		</g>
		<path class="st12" d="M1620.3,22.8c1.6,0,3-0.2,3-2c0-1.6-1.5-1.7-2.8-1.7h-2.6v3.8H1620.3z M1617.9,30.1h-2.1V17.2h4.9
			c3.1,0,4.7,1.1,4.7,3.7c0,2.3-1.4,3.3-3.4,3.5l3.6,5.7h-2.4l-3.3-5.5h-2V30.1z M1620.2,13.8c-5,0-9,4-9,9.6c0,5.3,3.4,9.6,9,9.6
			c5,0,8.9-3.9,8.9-9.6C1629.1,17.8,1625.2,13.8,1620.2,13.8 M1620.2,35.1c-6.7,0-11.5-5-11.5-11.7c0-7,5.3-11.7,11.5-11.7
			c6.1,0,11.4,4.6,11.4,11.7C1631.6,30.5,1626.3,35.1,1620.2,35.1"/>
	</g>
</g>
<g id="Isolation_Mode">
</g>
</svg>
