<svg xmlns="http://www.w3.org/2000/svg" viewBox="0 0 769 247.5">
  <defs>
    <style>.nyc-logo{fill:#000;}</style>
  </defs>
  <title>NYC Logo</title>
  <polygon class="nyc-logo nyc-logo-n" points="19.5 0 81 0 159.5 75.5 159.5 17.5 176.5 0 242.5 0 256.5 13.5 256.5 233 240 247.5 175.5 247.5 95.5 169.5 96 232 79.5 247.5 17 247.5 0 231 0 17.5 19.5 0"/>
  <polygon class="nyc-logo nyc-logo-y" points="269 0 335 0 350.5 17 350.5 47 381.5 77 413 48 413 17 430.5 0 494.5 0 511 19.5 511 111 430.5 187.5 430.5 228.5 414 247.5 349 247.5 333 229.5 333 184 256 110.5 256 13.5 269 0"/>
  <polygon class="nyc-logo nyc-logo-c" points="510.5 47.5 560 0 719.5 0 768 48 768 92.5 750 108.5 672.5 108.5 672.5 92.5 607.5 92.5 607.5 153 671 153 671 140.5 751 140.5 768.5 158 768 198 716.5 247.5 560.2 247.5 510.5 201 510.5 47.5"/>
  <path class="nyc-logo nyc-logo-r" d="M757.26,11c1.59,0,3-.15,3-2,0-1.56-1.53-1.75-2.8-1.75h-2.56V11h2.37Zm-2.37,7.32h-2.12V5.42h4.89c3.12,0,4.71,1.09,4.71,3.71,0,2.33-1.43,3.31-3.36,3.52l3.62,5.66h-2.41l-3.33-5.51h-2v5.51ZM757.19,2c-5,0-9,4-9,9.63,0,5.3,3.42,9.63,9,9.63,5,0,8.91-3.93,8.91-9.63S762.18,2,757.19,2m0,21.28c-6.7,0-11.47-5-11.47-11.65a11.44,11.44,0,1,1,22.88,0A11.3,11.3,0,0,1,757.19,23.3"/>
</svg>
